<mxfile host="app.diagrams.net" agent="Mozilla/5.0 (Windows NT 10.0; Win64; x64) AppleWebKit/537.36 (KHTML, like Gecko) Chrome/134.0.0.0 Safari/537.36" version="26.1.1">
  <diagram name="Page-1" id="lDIjkNqgKK7wDPVdlMzN">
    <mxGraphModel dx="584" dy="-2562" grid="1" gridSize="10" guides="1" tooltips="1" connect="1" arrows="1" fold="1" page="1" pageScale="1" pageWidth="850" pageHeight="1100" math="0" shadow="0">
      <root>
        <mxCell id="0" />
        <mxCell id="1" parent="0" />
        <mxCell id="cYMcxALbN2dqCe8a1rgX-1" value="&lt;div&gt;&lt;div&gt;&lt;font style=&quot;font-size: 16px;&quot;&gt;Вход&lt;/font&gt;&lt;/div&gt;&lt;div&gt;&lt;font style=&quot;font-size: 16px;&quot;&gt;void addTrip(struct Trip* trips, const int tripCount)&lt;/font&gt;&lt;/div&gt;&lt;/div&gt;" style="strokeWidth=1;html=1;shape=mxgraph.flowchart.terminator;whiteSpace=wrap;fontSize=17;" parent="1" vertex="1">
          <mxGeometry x="921" y="3300" width="200" height="86.75" as="geometry" />
        </mxCell>
        <mxCell id="cYMcxALbN2dqCe8a1rgX-2" value="Выход" style="strokeWidth=1;html=1;shape=mxgraph.flowchart.terminator;whiteSpace=wrap;fontSize=17;" parent="1" vertex="1">
          <mxGeometry x="921" y="4320" width="200" height="80" as="geometry" />
        </mxCell>
        <mxCell id="cYMcxALbN2dqCe8a1rgX-4" value="" style="endArrow=none;html=1;rounded=0;entryX=0.5;entryY=1;entryDx=0;entryDy=0;entryPerimeter=0;fontSize=17;exitX=0.5;exitY=0;exitDx=0;exitDy=0;" parent="1" source="cYMcxALbN2dqCe8a1rgX-15" target="cYMcxALbN2dqCe8a1rgX-1" edge="1">
          <mxGeometry width="50" height="50" relative="1" as="geometry">
            <mxPoint x="1021" y="3520" as="sourcePoint" />
            <mxPoint x="1021.5" y="3486" as="targetPoint" />
          </mxGeometry>
        </mxCell>
        <mxCell id="cYMcxALbN2dqCe8a1rgX-14" value="" style="endArrow=none;html=1;rounded=0;fontSize=17;exitX=0.5;exitY=0;exitDx=0;exitDy=0;exitPerimeter=0;entryX=0.5;entryY=1;entryDx=0;entryDy=0;" parent="1" source="cYMcxALbN2dqCe8a1rgX-2" target="cYMcxALbN2dqCe8a1rgX-15" edge="1">
          <mxGeometry width="50" height="50" relative="1" as="geometry">
            <mxPoint x="1020" y="4352" as="sourcePoint" />
            <mxPoint x="1022" y="3720" as="targetPoint" />
          </mxGeometry>
        </mxCell>
        <mxCell id="cYMcxALbN2dqCe8a1rgX-13" value="&lt;div&gt;Вывод таблицы автобусных рейсов&lt;/div&gt;" style="shape=process;whiteSpace=wrap;html=1;backgroundOutline=1;fontSize=17;" parent="1" vertex="1">
          <mxGeometry x="931.5" y="3407" width="180" height="80" as="geometry" />
        </mxCell>
        <mxCell id="cYMcxALbN2dqCe8a1rgX-15" value="&lt;font&gt;tripCount &amp;gt;= MAX_NUMBER_OF_TRIPS&amp;nbsp;&lt;/font&gt;&lt;div&gt;&lt;br&gt;&lt;/div&gt;" style="rhombus;whiteSpace=wrap;html=1;" parent="1" vertex="1">
          <mxGeometry x="937" y="3506" width="170" height="94" as="geometry" />
        </mxCell>
        <mxCell id="cYMcxALbN2dqCe8a1rgX-16" value="" style="endArrow=none;html=1;rounded=0;" parent="1" edge="1">
          <mxGeometry width="50" height="50" relative="1" as="geometry">
            <mxPoint x="1108" y="3553.5" as="sourcePoint" />
            <mxPoint x="1250" y="3554" as="targetPoint" />
          </mxGeometry>
        </mxCell>
        <mxCell id="cYMcxALbN2dqCe8a1rgX-17" value="" style="endArrow=none;html=1;rounded=0;entryX=0.5;entryY=1;entryDx=0;entryDy=0;entryPerimeter=0;fontSize=17;exitX=0.5;exitY=0;exitDx=0;exitDy=0;" parent="1" edge="1">
          <mxGeometry width="50" height="50" relative="1" as="geometry">
            <mxPoint x="1251" y="3673" as="sourcePoint" />
            <mxPoint x="1250" y="3554" as="targetPoint" />
          </mxGeometry>
        </mxCell>
        <mxCell id="cYMcxALbN2dqCe8a1rgX-19" value="Достигнут&amp;nbsp;&lt;div&gt;максимум рейсов!&lt;/div&gt;" style="shape=parallelogram;perimeter=parallelogramPerimeter;whiteSpace=wrap;html=1;fixedSize=1;fontSize=17;" parent="1" vertex="1">
          <mxGeometry x="1155" y="3570" width="180" height="80" as="geometry" />
        </mxCell>
        <mxCell id="cYMcxALbN2dqCe8a1rgX-20" value="&lt;span style=&quot;font-size: 16px;&quot;&gt;Выход&lt;/span&gt;" style="strokeWidth=1;html=1;shape=mxgraph.flowchart.terminator;whiteSpace=wrap;fontSize=17;" parent="1" vertex="1">
          <mxGeometry x="1154" y="3673.25" width="200" height="86.75" as="geometry" />
        </mxCell>
        <mxCell id="cYMcxALbN2dqCe8a1rgX-21" value="Да" style="text;html=1;align=center;verticalAlign=middle;whiteSpace=wrap;rounded=0;" parent="1" vertex="1">
          <mxGeometry x="1080" y="3520" width="60" height="30" as="geometry" />
        </mxCell>
        <mxCell id="cYMcxALbN2dqCe8a1rgX-22" value="Нет" style="text;html=1;align=center;verticalAlign=middle;whiteSpace=wrap;rounded=0;" parent="1" vertex="1">
          <mxGeometry x="950" y="3580" width="60" height="30" as="geometry" />
        </mxCell>
        <mxCell id="cYMcxALbN2dqCe8a1rgX-24" value="&lt;p style=&quot;line-height: 0.2in;&quot; class=&quot;western&quot;&gt;&lt;font face=&quot;Times New Roman, serif&quot;&gt;&lt;span style=&quot;font-size: 18.6667px;&quot;&gt;Создание новой поездки Trip&lt;/span&gt;&lt;/font&gt;&lt;/p&gt;" style="rounded=0;whiteSpace=wrap;html=1;" parent="1" vertex="1">
          <mxGeometry x="932" y="3616" width="183" height="80" as="geometry" />
        </mxCell>
        <mxCell id="cYMcxALbN2dqCe8a1rgX-25" value="Ввод номера рейса" style="shape=parallelogram;perimeter=parallelogramPerimeter;whiteSpace=wrap;html=1;fixedSize=1;fontSize=17;" parent="1" vertex="1">
          <mxGeometry x="933" y="3717" width="180" height="80" as="geometry" />
        </mxCell>
        <mxCell id="cYMcxALbN2dqCe8a1rgX-26" value="Ввод типа&lt;div&gt;автобуса&lt;/div&gt;" style="shape=parallelogram;perimeter=parallelogramPerimeter;whiteSpace=wrap;html=1;fixedSize=1;fontSize=17;" parent="1" vertex="1">
          <mxGeometry x="932" y="3820" width="180" height="80" as="geometry" />
        </mxCell>
        <mxCell id="cYMcxALbN2dqCe8a1rgX-27" value="Ввод пункта назначения" style="shape=parallelogram;perimeter=parallelogramPerimeter;whiteSpace=wrap;html=1;fixedSize=1;fontSize=17;" parent="1" vertex="1">
          <mxGeometry x="933" y="3920" width="180" height="80" as="geometry" />
        </mxCell>
        <mxCell id="cYMcxALbN2dqCe8a1rgX-28" value="Ввод времени отправления" style="shape=parallelogram;perimeter=parallelogramPerimeter;whiteSpace=wrap;html=1;fixedSize=1;fontSize=17;" parent="1" vertex="1">
          <mxGeometry x="932" y="4020" width="180" height="80" as="geometry" />
        </mxCell>
        <mxCell id="cYMcxALbN2dqCe8a1rgX-29" value="Ввод времени прибытия" style="shape=parallelogram;perimeter=parallelogramPerimeter;whiteSpace=wrap;html=1;fixedSize=1;fontSize=17;" parent="1" vertex="1">
          <mxGeometry x="933" y="4120" width="180" height="80" as="geometry" />
        </mxCell>
        <mxCell id="cYMcxALbN2dqCe8a1rgX-30" value="&lt;p style=&quot;line-height: 0.2in;&quot; class=&quot;western&quot;&gt;&lt;font face=&quot;Times New Roman, serif&quot;&gt;&lt;span style=&quot;font-size: 18.6667px;&quot;&gt;Добавление новой поездки в массив&lt;/span&gt;&lt;/font&gt;&lt;/p&gt;" style="rounded=0;whiteSpace=wrap;html=1;" parent="1" vertex="1">
          <mxGeometry x="932" y="4220" width="183" height="80" as="geometry" />
        </mxCell>
      </root>
    </mxGraphModel>
  </diagram>
</mxfile>
